<svg xmlns="http://www.w3.org/2000/svg" xmlns:xlink="http://www.w3.org/1999/xlink" fill="none" version="1.1" width="60" height="60" viewBox="0 0 60 60"><defs><clipPath id="master_svg0_4_12"><rect x="0" y="0" width="60" height="60" rx="0"/></clipPath></defs><g clip-path="url(#master_svg0_4_12)"><g><path d="M47.0556,25.8756L27.5696,25.8756C26.6339,25.8761,25.8754,26.6344,25.8747,27.5701L25.8736,31.806C25.8729,32.7418,26.6313,33.5006,27.5671,33.5009Q27.5674,33.5009,27.5676,33.5004L39.4306,33.500299999999996C40.3664,33.500299999999996,41.125,34.2589,41.1251,35.1947L41.125,35.618300000000005L41.125,36.0419C41.125,38.8493,38.849199999999996,41.1252,36.0417,41.1252L19.94334,41.1252C19.007669999999997,41.1252,18.24914,40.3667,18.24907,39.431L18.24863,23.3341C18.24841,20.52671,20.52422,18.25078,23.331699999999998,18.250700000000002L47.0508,18.25084C47.9862,18.24979,48.7447,17.491799999999998,48.7463,16.5564L48.749,12.32049C48.7506,11.384675,47.9924,10.625580711,47.0566,10.625C47.0563,10.625,47.0559,10.625,47.0556,10.62605053L23.3333,10.62605053C16.31468,10.62605053,10.625,16.315730000000002,10.625,23.3343L10.625,47.0556C10.625,47.9914,11.383625,48.75,12.31943,48.75L37.312799999999996,48.75C43.6294,48.75,48.75,43.6294,48.75,37.312799999999996L48.75,27.5701C48.75,26.6343,47.9914,25.8756,47.0556,25.8756Z" fill-rule="evenodd" fill="#C71D23" fill-opacity="1"/></g></g></svg>