<svg xmlns="http://www.w3.org/2000/svg" xmlns:xlink="http://www.w3.org/1999/xlink" fill="none" version="1.1" width="471" height="286" viewBox="0 0 471 286"><defs><filter id="master_svg0_3_218" filterUnits="objectBoundingBox" color-interpolation-filters="sRGB" x="-10" y="-8" width="76" height="75"><feFlood flood-opacity="0" result="BackgroundImageFix"/><feColorMatrix in="SourceAlpha" type="matrix" values="0 0 0 0 0 0 0 0 0 0 0 0 0 0 0 0 0 0 127 0"/><feOffset dy="2" dx="0"/><feGaussianBlur stdDeviation="2.5"/><feColorMatrix type="matrix" values="0 0 0 0 0 0 0 0 0 0 0 0 0 0 0 0 0 0 0.30000001192092896 0"/><feBlend mode="normal" in2="BackgroundImageFix" result="effect1_dropShadow"/><feBlend mode="normal" in="SourceGraphic" in2="effect1_dropShadow" result="shape"/></filter></defs><g><g><g><path d="M0,153C0,155.761,2.23858,158,5,158L197,158C199.761,158,202,155.761,202,153L202,123.5C202,120.739,199.761,118.5,197,118.5L47.5,118.5C44.7386,118.5,42.5,116.261,42.5,113.5L42.5,66.5C42.5,63.7386,44.7386,61.5,47.5,61.5L197,61.5C199.761,61.5,202,59.2614,202,56.5L202,5C202,2.23858,199.761,0,197,0L5,0C2.23858,0,0,2.23858,0,5L0,153Z" fill="#5F95FE" fill-opacity="1"/><path d="M0,153C0,155.761,2.23858,158,5,158L197,158C199.761,158,202,155.761,202,153L202,123.5C202,120.739,199.761,118.5,197,118.5L47.5,118.5C44.7386,118.5,42.5,116.261,42.5,113.5L42.5,66.5C42.5,63.7386,44.7386,61.5,47.5,61.5L197,61.5C199.761,61.5,202,59.2614,202,56.5L202,5C202,2.23858,199.761,0,197,0L5,0C2.23858,0,0,2.23858,0,5L0,153ZM1,153Q1,154.657,2.17157,155.828Q3.34314,157,5,157L197,157Q198.657,157,199.828,155.828Q201,154.657,201,153L201,123.5Q201,121.843,199.828,120.672Q198.657,119.5,197,119.5L47.5,119.5Q45.0147,119.5,43.2574,117.743Q41.5,115.985,41.5,113.5L41.5,66.5Q41.5,64.0147,43.2574,62.2574Q45.0147,60.5,47.5,60.5L197,60.5Q198.657,60.5,199.828,59.3284Q201,58.1569,201,56.5L201,5Q201,3.34313,199.828,2.17157Q198.657,1,197,1L5,1Q3.34315,1,2.17157,2.17157Q1,3.34315,1,5L1,153Z" fill-rule="evenodd" fill="#2C66D7" fill-opacity="1"/></g><g><path d="M115,30.5L134,51L155,51L174,30.5L155,10L134,10L115,30.5Z" fill-rule="evenodd" fill="#4472CB" fill-opacity="1"/></g><g><rect x="42" y="61" width="202" height="58" rx="5" fill="#5D67A4" fill-opacity="1"/><rect x="42.5" y="61.5" width="201" height="57" rx="4.5" fill-opacity="0" stroke-opacity="1" stroke="#464D7B" fill="none" stroke-width="1"/></g><g><rect x="76" y="71" width="79" height="39" rx="4" fill="#FFFFFF" fill-opacity="1"/><rect x="76.5" y="71.5" width="78" height="38" rx="3.5" fill-opacity="0" stroke-opacity="1" stroke="#464D7B" fill="none" stroke-width="1"/></g><g style="opacity:0.30000001192092896;"><ellipse cx="211" cy="102" rx="13" ry="13" fill="#FFFFFF" fill-opacity="1"/></g><g transform="matrix(0.8572804927825928,-0.5148496627807617,0.5148496627807617,0.8572804927825928,-34.20639296108857,114.26616551994812)" filter="url(#master_svg0_3_218)"><path d="M189,173.83154296875L217,160.64154296875L245,173.83154296875L217,118.83154296875L189,173.83154296875Z" fill="#000000" fill-opacity="1"/><path d="M217,162.29964296875L185.67537,177.05574296875L217,115.52527296875L248.3246,177.05574296875L217,162.29964296875ZM241.6754,170.60734296875L217,158.98344296875L216.3608,159.28454296875L192.32463,170.60734296875L217,122.13781296875L241.6754,170.60734296875Z" fill-rule="evenodd" fill="#FFFFFF" fill-opacity="1"/></g></g><g><path d="M173.68,242.816L173.68,233.744L211.48,213.512L211.48,226.61599999999999L187.72,238.28L211.48,249.94400000000002L211.48,263.048L173.68,242.816ZM428.2,213.512L466,233.744L466,242.816L428.2,263.048L428.2,249.94400000000002L451.96,238.28L428.2,226.61599999999999L428.2,213.512Z" fill="#000000" fill-opacity="1"/></g><g><path d="M239.176,267.296L239.176,209.336L251.344,209.336L251.344,229.928L251.704,229.928Q253.576,226.832,256.636,225.06799999999998Q259.696,223.304,263.656,223.304Q270.064,223.304,273.628,227.44400000000002Q277.192,231.584,277.192,239.216L277.192,267.296L265.024,267.296L265.024,242.024Q265.024,238.712,263.368,236.804Q261.712,234.89600000000002,258.832,234.89600000000002Q255.448,234.89600000000002,253.39600000000002,237.02Q251.344,239.144,251.344,242.816L251.344,267.296L239.176,267.296ZM312.04,235.832L300.952,235.832L300.952,251.672Q300.952,253.904,302.284,255.164Q303.616,256.424,306.06399999999996,256.424Q308.584,256.424,311.176,255.632L311.176,267.152Q307.216,268.376,303.11199999999997,268.376Q296.128,268.376,292.42,264.524Q288.712,260.672,288.712,253.54399999999998L288.712,235.832L282.088,235.832L282.088,224.312L288.712,224.312L288.712,212.288L300.952,212.288L300.952,224.312L312.04,224.312L312.04,235.832ZM317.728,267.296L317.728,224.312L329.896,224.312L329.896,229.784L330.328,229.784Q332.2,226.61599999999999,335.152,224.96Q338.104,223.304,341.92,223.304Q345.592,223.304,348.22,224.996Q350.848,226.688,352.144,229.928L352.576,229.928Q354.88,226.61599999999999,358.048,224.96Q361.216,223.304,365.608,223.304Q371.656,223.304,375.03999999999996,227.40800000000002Q378.424,231.512,378.424,239L378.424,267.296L366.256,267.296L366.256,241.808Q366.256,238.424,364.852,236.552Q363.448,234.68,360.784,234.68Q357.616,234.68,355.88800000000003,236.732Q354.15999999999997,238.784,354.15999999999997,242.528L354.15999999999997,267.296L341.992,267.296L341.992,241.808Q341.992,238.424,340.58799999999997,236.552Q339.18399999999997,234.68,336.52,234.68Q333.352,234.68,331.624,236.732Q329.896,238.784,329.896,242.528L329.896,267.296L317.728,267.296ZM386.344,209.336L398.512,209.336L398.512,253.256Q398.512,255.848,401.10400000000004,255.848L403.192,255.848L403.192,267.368L397.216,267.368Q391.96000000000004,267.368,389.152,264.776Q386.344,262.18399999999997,386.344,257.288L386.344,209.336Z" fill="#F3614E" fill-opacity="1"/></g><g transform="matrix(-0.8805566430091858,-0.47394105792045593,0.47394105792045593,-0.8805566430091858,127.8281715473795,576.8893791431783)"><path d="M177.6083984375,335.3369445800781L136.6083984375,303.3369445800781L177.6083984375,272.3369445800781L177.6083984375,289.4619445800781C203.0141984375,289.4619445800781,223.6083984375,310.1680445800781,223.6083984375,335.7119445800781C223.6083984375,336.97454458007815,223.5623984375,338.2233445800781,223.4611984375,339.4581445800781C216.5243984375,326.2307445800781,202.71519843750002,317.2119445800781,186.8083984375,317.2119445800781L177.6083984375,317.2119445800781L177.6083984375,335.3369445800781Z" fill="#222B69" fill-opacity="1" style="mix-blend-mode:passthrough"/></g></g></svg>