<svg xmlns="http://www.w3.org/2000/svg" xmlns:xlink="http://www.w3.org/1999/xlink" fill="none" version="1.1" width="60" height="60" viewBox="0 0 60 60"><defs><clipPath id="master_svg0_4_18"><rect x="0" y="0" width="60" height="60" rx="0"/></clipPath></defs><g clip-path="url(#master_svg0_4_18)"><g><g transform="matrix(1,0,0,-1,0,74.91156005859375)"><path d="M30.3494779296875,37.455780029296875C40.2689779296875,37.52227882929687,48.2179779296875,39.42143002929687,50.9124779296875,40.15149002929687Q51.5541779296875,40.32524002929688,51.8973779296875,40.63700002929688C51.8995779296875,40.72638002929688,51.9378779296875,42.23440002929688,51.9378779296875,43.012370029296875C51.9378779296875,56.11688002929688,45.6868779296875,69.28588002929688,30.3125779296875,69.28658002929687C14.939097929687499,69.28588002929688,8.6873779296875,56.11688002929688,8.6873779296875,43.012370029296875C8.6873779296875,42.23440002929688,8.7256740296875,40.72638002929688,8.7285641296875,40.63700002929688Q9.0074779296875,40.345260029296874,9.5205069296875,40.203680029296876C12.0076079296875,39.51939002929687,20.105477929687503,37.524424029296874,30.2764779296875,37.455780029296875L30.3494779296875,37.455780029296875Z" fill="#000100" fill-opacity="1"/></g><g transform="matrix(1,0,0,-1,0,49.9776611328125)"><path d="M24.841916015625,24.99149548640625C22.756566015625,24.89854006640625,20.974697015625,27.24888056640625,20.863420705625,30.23847056640625C20.749254015625,33.22949056640625,22.347586015625,35.72853056640625,24.432946015625,35.82153056640625C26.516126015624998,35.91373056640625,28.296546015625,33.56413056640625,28.410716015625,30.57454056640625C28.524886015625,27.58352056640625,26.926546015625,25.08445086640625,24.841916015625,24.99149548640625Z" fill="#FFFFFF" fill-opacity="1"/></g><g transform="matrix(1,0,0,-1,0,49.978515625)"><path d="M39.76270333984375,30.2388578125C39.65142333984375,27.2506978125,37.86810333984375,24.8996417125,35.78347333984375,24.9918821725C33.69812333984375,25.0848376125,32.10051333984375,27.5839078125,32.21468008984375,30.5749278125C32.32740233984375,33.5645178125,34.10927333984375,35.9148578125,36.19245333984375,35.8233578125C38.27780333984375,35.7289578125,39.87542333984375,33.2298778125,39.76270333984375,30.2388578125Z" fill="#FFFFFF" fill-opacity="1"/></g><g transform="matrix(1,0,0,-1,0,67.282470703125)"><path d="M43.46872919921875,38.0752053515625C42.91082919921875,39.2964953515625,37.29862919921875,40.6579353515625,30.34962919921875,40.6579353515625L30.27522919921875,40.6579353515625C23.32618919921875,40.6579353515625,17.71322119921875,39.2964953515625,17.15611539921875,38.0752053515625C17.13154759921875,38.0222953515625,17.11492919921875,37.9636653515625,17.11492919921875,37.901455351562504C17.11492919921875,37.812785351562496,17.14599939921875,37.7341353515625,17.19224359921875,37.6669153515625C17.66191819921875,36.9890553515625,23.89484919921875,33.6412353515625,30.27522919921875,33.6412353515625L30.34962919921875,33.6412353515625C36.729929199218745,33.6412353515625,42.96292919921875,36.9890553515625,43.43252919921875,37.6669153515625C43.479529199218746,37.7327053515625,43.50982919921875,37.8142153515625,43.50982919921875,37.9021653515625C43.50982919921875,37.9636653515625,43.49472919921875,38.0222953515625,43.46872919921875,38.0752053515625Z" fill="#F1A81B" fill-opacity="1"/></g><g transform="matrix(1,0,0,-1,0,44.27587890625)"><path d="M27.40584076171875,24.492619453125002C27.50122076171875,23.312089453125,26.84729076171875,22.263119453125,25.94552076171875,22.147998253125C25.04374376171875,22.034306453125,24.23590476171875,22.897361453125,24.14052525171875,24.079329453125C24.04659046171875,25.260569453125,24.69907576171875,26.310249453125,25.59940076171875,26.423949453125C26.50262076171875,26.538349453125,27.31191076171875,25.673869453125,27.40584076171875,24.492619453125002Z" fill="#000100" fill-opacity="1"/></g><g transform="matrix(1,0,0,-1,0,41.831787109375)"><path d="M33.13604803671875,21.6536265546875C33.31885963671875,21.9796835546875,34.57614263671875,23.6986435546875,37.17452263671875,23.0736935546875C37.85735263671875,22.9092435546875,38.17312263671875,22.6668435546875,38.23887263671875,22.5724535546875C38.337862636718754,22.4308735546875,38.36388263671875,22.2313835546875,38.26488263671875,21.9618135546875C38.06617263671875,21.4283885546875,37.66009263671875,21.4426895546875,37.43320263671875,21.5470855546875C37.28724263671875,21.6142995546875,35.47647263671875,22.8084135546875,33.81021063671875,21.0272505546875C33.69459863671875,20.9042629546875,33.49010963671875,20.8627905546875,33.29573663671875,21.0086589546875C33.10136443671875,21.1530975546875,33.02043603671875,21.4484095546875,33.13604803671875,21.6536265546875Z" fill="#000100" fill-opacity="1"/></g><g transform="matrix(1,0,0,-1,0,110)"><path d="M16.70306396484375,65.84909999999999L16.70306396484375,55.562495Q21.46628396484375,54.610775,26.23744396484375,55.269328L26.23744396484375,64.75936C23.21491396484375,64.92811,19.95465396484375,65.3049,16.70306396484375,65.84909999999999Z" fill="#DC2829" fill-opacity="1"/></g><g transform="matrix(1,0,0,-1,0,91.3243408203125)"><path d="M51.8973,57.049270410156254Q42.6331,54.15549041015625,30.3494,54.07326041015625L30.2764,54.07326041015625C18.0121,54.15549041015625,8.75953,57.03927041015625,8.72846,57.049270410156254L5.625,49.38616041015625C13.38618,47.07086041015625,23.0037,45.57856811015625,30.2764,45.66580298015625L30.3494,45.66580298015625C37.6221,45.57856811015625,47.2381,47.06943041015625,55,49.38616041015625L51.8973,57.049270410156254Z" fill="#DC2829" fill-opacity="1"/></g></g></g></svg>