<svg xmlns="http://www.w3.org/2000/svg" id="canvas" viewBox="214.139 233.82 513.368 142.212"><path d="M 269.15,259.32 C 268.61 258.96, 267.89 258.69, 266.41 258.61 C 264.93 258.54, 263.95 258.52, 261.75 258.93 C 259.55 259.34, 258.07 259.63, 255.40 260.68 C 252.73 261.74, 251.23 262.65, 248.42 264.19 C 245.60 265.74, 243.98 266.65, 241.32 268.40 C 238.66 270.15, 237.16 271.08, 235.13 272.96 C 233.11 274.83, 232.17 275.89, 231.18 277.78 C 230.19 279.68, 229.95 280.67, 230.16 282.43 C 230.37 284.19, 230.86 285.05, 232.22 286.59 C 233.59 288.13, 234.63 288.87, 236.99 290.13 C 239.35 291.40, 240.98 291.87, 244.02 292.90 C 247.06 293.94, 248.97 294.34, 252.20 295.31 C 255.44 296.28, 257.25 296.76, 260.22 297.76 C 263.18 298.76, 264.73 299.32, 267.04 300.30 C 269.35 301.28, 270.44 301.72, 271.77 302.67 C 273.10 303.62, 273.51 304.06, 273.70 305.05 C 273.88 306.03, 273.67 306.49, 272.70 307.62 C 271.74 308.76, 270.87 309.33, 268.87 310.72 C 266.86 312.10, 265.54 313.01, 262.67 314.55 C 259.81 316.08, 258.00 316.95, 254.54 318.39 C 251.09 319.83, 249.03 320.58, 245.40 321.75 C 241.76 322.92, 239.75 323.47, 236.37 324.24 C 232.99 325.01, 231.24 325.19, 228.51 325.58 C 225.78 325.96, 224.52 326.15, 222.72 326.16 C 220.92 326.18, 220.37 325.96, 219.52 325.65 C 218.67 325.34, 218.70 325.06, 218.46 324.62 C 218.23 324.17, 218.54 323.69, 218.35 323.44 C 218.16 323.20, 217.75 323.06, 217.52 323.39 C 217.30 323.72, 216.98 324.35, 217.23 325.11 C 217.47 325.87, 217.68 326.53, 218.76 327.18 C 219.83 327.84, 220.60 328.19, 222.62 328.37 C 224.64 328.55, 226.01 328.50, 228.86 328.11 C 231.72 327.71, 233.45 327.26, 236.89 326.40 C 240.32 325.54, 242.35 324.97, 246.05 323.80 C 249.75 322.62, 251.82 321.89, 255.39 320.52 C 258.96 319.15, 260.85 318.42, 263.89 316.94 C 266.93 315.45, 268.47 314.72, 270.60 313.12 C 272.73 311.51, 273.60 310.57, 274.55 308.89 C 275.51 307.21, 275.68 306.31, 275.39 304.73 C 275.11 303.16, 274.59 302.39, 273.14 301.03 C 271.68 299.66, 270.52 299.06, 268.10 297.92 C 265.68 296.79, 264.05 296.36, 261.02 295.35 C 257.99 294.35, 256.17 293.90, 252.95 292.89 C 249.74 291.87, 247.88 291.34, 244.96 290.26 C 242.03 289.19, 240.55 288.57, 238.33 287.51 C 236.11 286.44, 235.12 286.00, 233.86 284.94 C 232.60 283.88, 232.18 283.41, 232.02 282.20 C 231.87 281.00, 232.11 280.36, 233.09 278.91 C 234.07 277.47, 234.99 276.63, 236.93 274.97 C 238.87 273.32, 240.22 272.29, 242.78 270.63 C 245.33 268.96, 246.95 268.04, 249.71 266.65 C 252.46 265.26, 254.01 264.64, 256.56 263.70 C 259.10 262.75, 260.43 262.47, 262.43 261.92 C 264.44 261.38, 265.26 261.28, 266.60 260.98 C 267.93 260.68, 268.61 260.75, 269.12 260.42 C 269.63 260.09, 269.69 259.69, 269.15 259.32" style="stroke:#000;fill:#000"/><path d="M 309.41,269.88 C 309.00 270.23, 308.85 270.67, 308.35 271.84 C 307.85 273.00, 307.52 273.74, 306.93 275.70 C 306.34 277.65, 306.03 279.05, 305.40 281.62 C 304.78 284.19, 304.44 285.73, 303.80 288.56 C 303.17 291.38, 302.75 292.94, 302.24 295.75 C 301.73 298.55, 301.45 300.00, 301.26 302.58 C 301.06 305.16, 301.00 306.46, 301.25 308.64 C 301.50 310.82, 301.72 311.87, 302.50 313.49 C 303.28 315.10, 303.85 315.82, 305.15 316.72 C 306.46 317.61, 307.28 317.90, 309.04 317.95 C 310.79 318.00, 311.82 317.82, 313.93 316.96 C 316.04 316.10, 317.26 315.44, 319.60 313.64 C 321.93 311.83, 323.11 310.52, 325.61 307.93 C 328.11 305.34, 329.50 303.74, 332.11 300.68 C 334.72 297.63, 336.16 295.83, 338.66 292.63 C 341.16 289.44, 342.43 287.63, 344.60 284.71 C 346.77 281.78, 347.92 280.39, 349.51 278.00 C 351.10 275.61, 351.68 274.41, 352.55 272.74 C 353.42 271.07, 353.72 270.34, 353.85 269.64 C 353.99 268.94, 353.78 268.81, 353.21 269.23 C 352.64 269.66, 352.16 270.28, 351.01 271.75 C 349.85 273.22, 349.08 274.25, 347.45 276.59 C 345.82 278.94, 344.94 280.50, 342.86 283.45 C 340.78 286.41, 339.52 288.21, 337.05 291.37 C 334.58 294.54, 333.13 296.32, 330.50 299.28 C 327.87 302.25, 326.44 303.80, 323.90 306.20 C 321.36 308.60, 320.03 309.63, 317.81 311.28 C 315.59 312.92, 314.56 313.55, 312.79 314.43 C 311.03 315.30, 310.28 315.53, 308.98 315.65 C 307.69 315.77, 307.20 315.64, 306.31 315.03 C 305.42 314.41, 305.06 313.90, 304.54 312.58 C 304.03 311.26, 303.85 310.37, 303.73 308.42 C 303.61 306.47, 303.67 305.25, 303.93 302.82 C 304.19 300.40, 304.48 299.00, 305.04 296.29 C 305.60 293.58, 306.01 292.04, 306.73 289.26 C 307.45 286.49, 307.98 284.99, 308.64 282.43 C 309.29 279.87, 309.62 278.47, 310.02 276.46 C 310.41 274.45, 310.53 273.65, 310.61 272.37 C 310.70 271.10, 310.67 270.59, 310.43 270.09 C 310.19 269.59, 309.83 269.53, 309.41 269.88" style="stroke:#000;fill:#000"/><path d="M 375.06,272.94 C 374.62 273.30, 374.54 273.77, 373.87 275.01 C 373.21 276.24, 372.73 277.06, 371.74 279.11 C 370.74 281.17, 370.12 282.64, 368.89 285.27 C 367.67 287.90, 366.92 289.50, 365.59 292.26 C 364.26 295.03, 363.40 296.51, 362.24 299.08 C 361.08 301.65, 360.46 303.02, 359.79 305.13 C 359.13 307.25, 359.08 308.27, 358.92 309.64 C 358.76 311.01, 358.85 311.50, 359.00 311.99 C 359.15 312.49, 359.35 312.51, 359.68 312.13 C 360.00 311.74, 360.10 311.30, 360.61 310.08 C 361.12 308.86, 361.36 307.99, 362.21 306.03 C 363.05 304.07, 363.65 302.78, 364.83 300.28 C 366.02 297.78, 366.74 296.25, 368.14 293.53 C 369.53 290.81, 370.49 289.30, 371.80 286.68 C 373.11 284.05, 373.84 282.59, 374.70 280.41 C 375.56 278.23, 375.82 277.22, 376.09 275.78 C 376.36 274.33, 376.26 273.75, 376.05 273.18 C 375.85 272.61, 375.49 272.57, 375.06 272.94" style="stroke:#000;fill:#000"/><path d="M 393.85,238.67 C 394.24 238.41, 394.44 237.98, 394.36 237.83 C 394.28 237.68, 393.81 237.77, 393.43 237.92 C 393.06 238.07, 392.62 238.41, 392.50 238.59 C 392.38 238.77, 392.50 239.02, 392.84 238.81 C 393.18 238.60, 394.04 237.94, 394.20 237.54 C 394.36 237.14, 394.05 236.82, 393.65 236.82 C 393.26 236.81, 392.65 237.17, 392.21 237.52 C 391.77 237.88, 391.42 238.28, 391.46 238.61 C 391.51 238.93, 391.95 239.13, 392.43 239.14 C 392.91 239.15, 393.46 238.93, 393.85 238.67" style="stroke:#000;fill:#000"/><path d="M 415.08,280.39 C 414.60 280.85, 414.37 281.35, 413.64 282.97 C 412.92 284.59, 412.44 285.73, 411.45 288.49 C 410.45 291.25, 410.02 293.18, 408.66 296.77 C 407.30 300.36, 406.42 302.42, 404.64 306.42 C 402.87 310.42, 401.79 312.63, 399.80 316.76 C 397.82 320.89, 396.69 323.11, 394.74 327.08 C 392.79 331.05, 391.77 333.09, 390.05 336.61 C 388.33 340.14, 387.39 341.87, 386.13 344.69 C 384.87 347.51, 384.40 348.87, 383.75 350.73 C 383.10 352.58, 382.93 353.26, 382.88 353.96 C 382.84 354.67, 383.03 354.76, 383.54 354.26 C 384.04 353.76, 384.45 353.18, 385.39 351.46 C 386.33 349.73, 386.95 348.44, 388.23 345.64 C 389.51 342.84, 390.17 340.99, 391.79 337.44 C 393.42 333.88, 394.42 331.84, 396.34 327.86 C 398.27 323.88, 399.40 321.66, 401.41 317.54 C 403.43 313.41, 404.54 311.21, 406.43 307.24 C 408.32 303.26, 409.29 301.22, 410.87 297.68 C 412.44 294.13, 413.31 292.32, 414.31 289.52 C 415.31 286.71, 415.52 285.44, 415.87 283.67 C 416.21 281.90, 416.20 281.32, 416.04 280.67 C 415.88 280.01, 415.56 279.93, 415.08 280.39" style="stroke:#000;fill:#000"/><path d="M 409.96,281.12 C 410.57 280.79, 410.93 279.93, 412.04 278.86 C 413.15 277.80, 413.81 277.01, 415.51 275.80 C 417.20 274.59, 418.25 273.77, 420.51 272.81 C 422.76 271.84, 424.15 271.46, 426.78 270.97 C 429.42 270.48, 430.95 270.34, 433.69 270.33 C 436.43 270.33, 437.96 270.43, 440.48 270.95 C 443.01 271.46, 444.30 271.88, 446.33 272.89 C 448.36 273.89, 449.33 274.58, 450.63 275.97 C 451.93 277.37, 452.46 278.19, 452.83 279.87 C 453.20 281.54, 453.16 282.46, 452.49 284.36 C 451.81 286.25, 451.17 287.27, 449.47 289.34 C 447.77 291.40, 446.61 292.59, 443.98 294.66 C 441.34 296.74, 439.59 297.86, 436.30 299.71 C 433.01 301.56, 431.03 302.50, 427.54 303.90 C 424.05 305.29, 422.05 305.84, 418.86 306.68 C 415.66 307.51, 414.01 307.73, 411.57 308.06 C 409.13 308.39, 408.17 308.27, 406.67 308.32 C 405.17 308.36, 404.63 308.14, 404.08 308.27 C 403.53 308.40, 403.45 308.61, 403.94 308.95 C 404.42 309.30, 404.94 309.69, 406.52 310.01 C 408.10 310.32, 409.25 310.74, 411.84 310.52 C 414.43 310.30, 416.16 309.82, 419.46 308.89 C 422.76 307.97, 424.76 307.34, 428.34 305.89 C 431.92 304.44, 433.94 303.50, 437.37 301.65 C 440.79 299.79, 442.61 298.72, 445.46 296.61 C 448.31 294.50, 449.75 293.41, 451.63 291.11 C 453.50 288.81, 454.17 287.47, 454.86 285.12 C 455.55 282.77, 455.56 281.51, 455.08 279.36 C 454.59 277.21, 453.94 276.12, 452.43 274.37 C 450.92 272.61, 449.79 271.81, 447.51 270.59 C 445.24 269.37, 443.81 268.89, 441.05 268.28 C 438.29 267.67, 436.66 267.58, 433.71 267.55 C 430.75 267.51, 429.15 267.61, 426.27 268.09 C 423.39 268.58, 421.83 268.92, 419.31 269.97 C 416.79 271.02, 415.50 271.90, 413.66 273.36 C 411.82 274.83, 411.06 275.85, 410.12 277.29 C 409.18 278.73, 409.01 279.78, 408.98 280.55 C 408.94 281.31, 409.35 281.46, 409.96 281.12" style="stroke:#000;fill:#000"/><path d="M 486.45,270.56 C 485.97 270.88, 485.78 271.35, 485.03 272.52 C 484.27 273.69, 483.75 274.45, 482.69 276.42 C 481.62 278.39, 480.94 279.83, 479.71 282.37 C 478.48 284.91, 477.77 286.44, 476.53 289.12 C 475.29 291.79, 474.49 293.24, 473.53 295.73 C 472.56 298.23, 472.09 299.51, 471.70 301.59 C 471.32 303.67, 471.25 304.66, 471.59 306.14 C 471.92 307.62, 472.30 308.26, 473.38 308.99 C 474.45 309.72, 475.24 309.92, 476.96 309.77 C 478.68 309.63, 479.77 309.32, 481.99 308.28 C 484.21 307.24, 485.49 306.34, 488.07 304.57 C 490.65 302.79, 492.12 301.54, 494.87 299.38 C 497.62 297.22, 499.21 295.90, 501.84 293.77 C 504.46 291.64, 505.92 290.51, 507.99 288.74 C 510.05 286.97, 510.98 286.05, 512.16 284.94 C 513.35 283.83, 513.67 283.33, 513.91 283.18 C 514.14 283.03, 513.78 283.26, 513.34 284.19 C 512.90 285.12, 512.37 286.05, 511.72 287.83 C 511.07 289.61, 510.57 290.89, 510.10 293.08 C 509.63 295.26, 509.41 296.62, 509.35 298.75 C 509.29 300.88, 509.28 302.00, 509.80 303.73 C 510.32 305.46, 510.76 306.26, 511.96 307.38 C 513.17 308.50, 514.00 308.95, 515.82 309.33 C 517.65 309.72, 518.78 309.73, 521.10 309.31 C 523.42 308.89, 524.82 308.46, 527.42 307.23 C 530.02 305.99, 531.43 305.02, 534.11 303.13 C 536.79 301.23, 538.23 300.04, 540.82 297.75 C 543.41 295.46, 544.80 294.11, 547.07 291.67 C 549.33 289.24, 550.48 287.91, 552.15 285.58 C 553.81 283.25, 554.45 282.02, 555.37 280.04 C 556.29 278.06, 556.52 277.11, 556.74 275.70 C 556.96 274.30, 556.68 273.56, 556.47 273.01 C 556.27 272.45, 555.98 272.50, 555.70 272.95 C 555.41 273.39, 555.55 274.05, 555.05 275.24 C 554.56 276.44, 554.25 277.17, 553.23 278.93 C 552.22 280.69, 551.57 281.81, 549.98 284.03 C 548.38 286.25, 547.42 287.64, 545.27 290.02 C 543.11 292.40, 541.75 293.73, 539.22 295.91 C 536.69 298.10, 535.23 299.23, 532.62 300.94 C 530.00 302.66, 528.56 303.36, 526.14 304.48 C 523.71 305.60, 522.49 306.03, 520.51 306.52 C 518.52 307.01, 517.63 307.08, 516.21 306.95 C 514.78 306.81, 514.22 306.59, 513.39 305.83 C 512.57 305.08, 512.32 304.54, 512.09 303.17 C 511.86 301.80, 511.97 300.85, 512.25 299.00 C 512.53 297.14, 512.95 295.94, 513.48 293.88 C 514.02 291.82, 514.58 290.60, 514.93 288.70 C 515.28 286.81, 515.43 285.68, 515.24 284.41 C 515.05 283.13, 514.83 282.58, 513.97 282.34 C 513.11 282.11, 512.47 282.37, 510.92 283.23 C 509.38 284.09, 508.37 284.92, 506.24 286.64 C 504.11 288.37, 502.84 289.70, 500.26 291.85 C 497.67 293.99, 496.09 295.31, 493.33 297.36 C 490.56 299.41, 488.98 300.48, 486.44 302.12 C 483.90 303.75, 482.60 304.47, 480.61 305.53 C 478.63 306.59, 477.80 307.01, 476.52 307.42 C 475.24 307.84, 474.84 307.92, 474.23 307.61 C 473.62 307.30, 473.51 306.96, 473.48 305.88 C 473.46 304.79, 473.58 303.97, 474.11 302.16 C 474.64 300.34, 475.11 299.15, 476.13 296.80 C 477.15 294.45, 477.89 293.00, 479.20 290.41 C 480.52 287.83, 481.43 286.37, 482.71 283.86 C 483.98 281.34, 484.70 279.90, 485.59 277.82 C 486.49 275.75, 486.81 274.84, 487.18 273.46 C 487.54 272.08, 487.57 271.49, 487.42 270.91 C 487.27 270.33, 486.93 270.23, 486.45 270.56" style="stroke:#000;fill:#000"/><path d="M 580.41,274.73 C 579.97 275.08, 579.86 275.56, 579.22 276.72 C 578.58 277.89, 578.12 278.67, 577.20 280.56 C 576.27 282.44, 575.68 283.79, 574.59 286.16 C 573.51 288.52, 572.87 289.94, 571.77 292.40 C 570.67 294.86, 570.00 296.20, 569.10 298.44 C 568.20 300.68, 567.82 301.84, 567.26 303.61 C 566.69 305.39, 566.47 306.16, 566.28 307.32 C 566.10 308.48, 566.26 308.85, 566.35 309.40 C 566.43 309.96, 566.55 309.94, 566.70 310.08 C 566.85 310.22, 566.92 310.19, 567.08 310.10 C 567.24 310.00, 567.25 310.03, 567.50 309.59 C 567.74 309.15, 567.88 308.91, 568.31 307.88 C 568.73 306.86, 568.95 306.13, 569.63 304.46 C 570.30 302.80, 570.69 301.70, 571.68 299.55 C 572.66 297.40, 573.36 296.11, 574.55 293.71 C 575.74 291.31, 576.50 289.94, 577.63 287.57 C 578.75 285.20, 579.40 283.86, 580.17 281.85 C 580.93 279.84, 581.21 278.88, 581.46 277.51 C 581.71 276.14, 581.63 275.54, 581.42 274.99 C 581.21 274.43, 580.85 274.38, 580.41 274.73" style="stroke:#000;fill:#000"/><path d="M 593.19,243.47 C 593.59 243.44, 593.82 243.27, 593.75 243.26 C 593.68 243.26, 593.22 243.29, 592.84 243.45 C 592.47 243.62, 591.94 243.96, 591.88 244.09 C 591.82 244.22, 592.09 244.35, 592.55 244.09 C 593.01 243.84, 593.89 243.29, 594.17 242.81 C 594.46 242.33, 594.34 241.84, 593.96 241.70 C 593.59 241.55, 592.86 241.85, 592.31 242.08 C 591.76 242.31, 591.32 242.59, 591.21 242.86 C 591.10 243.13, 591.36 243.30, 591.75 243.42 C 592.15 243.54, 592.79 243.50, 593.19 243.47" style="stroke:#000;fill:#000"/><path d="M 611.93,278.00 C 611.45 278.40, 611.28 279.02, 610.60 280.29 C 609.92 281.56, 609.49 282.38, 608.55 284.33 C 607.60 286.28, 607.02 287.69, 605.87 290.04 C 604.73 292.40, 604.06 293.73, 602.82 296.10 C 601.58 298.47, 600.80 299.78, 599.67 301.89 C 598.53 304.00, 597.82 305.07, 597.14 306.67 C 596.47 308.26, 596.24 309.04, 596.30 309.85 C 596.36 310.67, 596.64 310.96, 597.43 310.74 C 598.21 310.52, 598.82 310.12, 600.22 308.76 C 601.61 307.39, 602.41 306.23, 604.39 303.93 C 606.38 301.63, 607.51 299.98, 610.16 297.27 C 612.81 294.57, 614.50 293.03, 617.65 290.41 C 620.81 287.80, 622.64 286.37, 625.93 284.20 C 629.21 282.02, 631.04 281.00, 634.07 279.54 C 637.11 278.08, 638.67 277.59, 641.10 276.90 C 643.53 276.21, 644.57 275.98, 646.24 276.11 C 647.90 276.23, 648.55 276.56, 649.42 277.51 C 650.29 278.47, 650.42 279.17, 650.58 280.86 C 650.75 282.56, 650.61 283.70, 650.24 285.98 C 649.87 288.26, 649.46 289.68, 648.73 292.26 C 647.99 294.84, 647.39 296.31, 646.57 298.88 C 645.74 301.45, 645.20 302.82, 644.60 305.11 C 644.00 307.39, 643.74 308.53, 643.56 310.31 C 643.38 312.09, 643.50 312.87, 643.70 314.02 C 643.90 315.18, 644.18 315.54, 644.57 316.08 C 644.96 316.62, 645.34 316.69, 645.64 316.73 C 645.95 316.77, 646.06 316.53, 646.09 316.29 C 646.11 316.05, 645.85 316.02, 645.77 315.54 C 645.70 315.05, 645.67 314.84, 645.71 313.87 C 645.74 312.89, 645.64 312.25, 645.94 310.65 C 646.24 309.05, 646.52 308.03, 647.21 305.86 C 647.90 303.70, 648.47 302.37, 649.37 299.82 C 650.27 297.27, 650.94 295.79, 651.70 293.10 C 652.46 290.41, 652.93 288.90, 653.19 286.37 C 653.44 283.84, 653.47 282.49, 653.00 280.45 C 652.52 278.41, 652.10 277.44, 650.80 276.16 C 649.49 274.89, 648.54 274.40, 646.47 274.09 C 644.41 273.77, 643.15 273.90, 640.47 274.60 C 637.80 275.30, 636.25 276.01, 633.11 277.59 C 629.98 279.18, 628.16 280.28, 624.81 282.52 C 621.46 284.76, 619.61 286.20, 616.34 288.80 C 613.08 291.41, 611.37 292.95, 608.49 295.54 C 605.62 298.13, 604.10 299.50, 601.99 301.76 C 599.87 304.03, 599.00 305.23, 597.92 306.87 C 596.85 308.50, 596.70 309.24, 596.60 309.93 C 596.50 310.62, 596.84 310.72, 597.40 310.31 C 597.97 309.90, 598.46 309.30, 599.41 307.90 C 600.36 306.49, 600.94 305.35, 602.16 303.29 C 603.37 301.22, 604.16 299.91, 605.49 297.56 C 606.82 295.20, 607.63 293.89, 608.83 291.50 C 610.02 289.11, 610.68 287.69, 611.49 285.61 C 612.29 283.53, 612.57 282.56, 612.86 281.10 C 613.16 279.63, 613.15 278.91, 612.97 278.29 C 612.78 277.67, 612.40 277.60, 611.93 278.00" style="stroke:#000;fill:#000"/><path d="M 706.63,289.83 C 707.06 289.52, 707.45 288.95, 707.59 288.06 C 707.73 287.18, 707.78 286.46, 707.33 285.39 C 706.88 284.31, 706.50 283.51, 705.35 282.69 C 704.20 281.86, 703.39 281.54, 701.59 281.27 C 699.79 281.00, 698.69 280.98, 696.35 281.32 C 694.01 281.67, 692.56 281.98, 689.90 282.98 C 687.23 283.99, 685.70 284.80, 683.05 286.34 C 680.39 287.88, 678.91 288.85, 676.64 290.70 C 674.38 292.54, 673.24 293.62, 671.73 295.57 C 670.22 297.51, 669.59 298.59, 669.09 300.42 C 668.59 302.25, 668.62 303.27, 669.23 304.73 C 669.84 306.20, 670.50 306.90, 672.12 307.75 C 673.75 308.61, 674.91 308.89, 677.33 309.01 C 679.75 309.13, 681.29 308.95, 684.25 308.35 C 687.20 307.75, 688.91 307.12, 692.10 306.01 C 695.29 304.90, 697.08 304.18, 700.19 302.82 C 703.29 301.46, 704.96 300.65, 707.61 299.23 C 710.26 297.82, 711.57 297.05, 713.44 295.75 C 715.32 294.44, 716.18 293.58, 716.98 292.71 C 717.79 291.84, 717.73 291.35, 717.45 291.39 C 717.18 291.42, 716.57 291.74, 715.61 292.87 C 714.64 294.00, 713.88 294.86, 712.64 297.04 C 711.40 299.22, 710.74 300.80, 709.42 303.76 C 708.09 306.72, 707.37 308.50, 706.01 311.84 C 704.66 315.19, 703.98 316.97, 702.64 320.47 C 701.30 323.96, 700.67 325.81, 699.31 329.32 C 697.96 332.83, 697.32 334.65, 695.86 338.02 C 694.40 341.38, 693.67 343.07, 692.02 346.13 C 690.38 349.20, 689.51 350.69, 687.63 353.32 C 685.74 355.96, 684.75 357.18, 682.61 359.30 C 680.47 361.42, 679.30 362.34, 676.91 363.93 C 674.53 365.53, 673.22 366.18, 670.70 367.27 C 668.18 368.36, 666.87 368.77, 664.30 369.37 C 661.73 369.98, 660.38 370.13, 657.84 370.29 C 655.30 370.44, 653.99 370.39, 651.60 370.14 C 649.20 369.89, 647.98 369.62, 645.87 369.04 C 643.76 368.46, 642.72 368.06, 641.04 367.25 C 639.35 366.44, 638.55 365.93, 637.43 364.98 C 636.31 364.03, 635.84 363.50, 635.44 362.49 C 635.04 361.49, 635.00 361.01, 635.42 359.96 C 635.83 358.92, 636.20 358.42, 637.51 357.29 C 638.82 356.16, 639.74 355.58, 641.97 354.31 C 644.20 353.04, 645.60 352.23, 648.65 350.92 C 651.70 349.61, 653.55 348.96, 657.22 347.76 C 660.89 346.55, 663.00 345.96, 667.02 344.91 C 671.04 343.86, 673.23 343.36, 677.30 342.51 C 681.37 341.67, 683.51 341.31, 687.36 340.68 C 691.22 340.05, 693.12 339.77, 696.60 339.36 C 700.08 338.95, 701.76 338.84, 704.78 338.63 C 707.80 338.41, 709.19 338.41, 711.70 338.29 C 714.22 338.17, 715.46 338.12, 717.37 338.03 C 719.27 337.94, 720.01 337.97, 721.22 337.86 C 722.42 337.74, 722.77 337.63, 723.40 337.46 C 724.03 337.30, 724.18 337.24, 724.37 337.04 C 724.56 336.84, 724.55 336.66, 724.35 336.48 C 724.15 336.29, 724.00 336.26, 723.37 336.12 C 722.74 335.99, 722.41 335.88, 721.20 335.78 C 719.99 335.69, 719.24 335.63, 717.31 335.64 C 715.39 335.64, 714.12 335.66, 711.58 335.79 C 709.03 335.93, 707.63 336.00, 704.59 336.31 C 701.54 336.61, 699.84 336.81, 696.33 337.30 C 692.82 337.79, 690.93 338.09, 687.04 338.76 C 683.16 339.43, 681.02 339.80, 676.92 340.65 C 672.81 341.50, 670.60 342.00, 666.54 343.01 C 662.47 344.01, 660.34 344.57, 656.58 345.68 C 652.81 346.79, 650.92 347.34, 647.70 348.54 C 644.48 349.74, 642.88 350.32, 640.47 351.69 C 638.07 353.06, 637.10 353.87, 635.67 355.39 C 634.25 356.91, 633.79 357.71, 633.34 359.28 C 632.89 360.84, 632.93 361.72, 633.43 363.22 C 633.92 364.71, 634.52 365.48, 635.81 366.75 C 637.10 368.01, 638.02 368.57, 639.89 369.54 C 641.76 370.50, 642.88 370.92, 645.16 371.57 C 647.44 372.22, 648.75 372.52, 651.32 372.79 C 653.89 373.06, 655.28 373.10, 658.00 372.93 C 660.72 372.76, 662.16 372.60, 664.91 371.94 C 667.66 371.28, 669.06 370.83, 671.74 369.63 C 674.42 368.44, 675.80 367.71, 678.30 365.97 C 680.81 364.23, 682.04 363.22, 684.26 360.95 C 686.49 358.67, 687.51 357.37, 689.44 354.60 C 691.37 351.84, 692.23 350.29, 693.90 347.13 C 695.56 343.98, 696.29 342.25, 697.76 338.84 C 699.23 335.42, 699.86 333.59, 701.23 330.07 C 702.61 326.55, 703.24 324.71, 704.63 321.25 C 706.02 317.79, 706.71 316.03, 708.19 312.78 C 709.67 309.54, 710.53 307.85, 712.01 305.02 C 713.50 302.20, 714.47 300.86, 715.61 298.66 C 716.75 296.46, 717.25 295.49, 717.72 294.03 C 718.18 292.56, 718.28 291.88, 717.94 291.33 C 717.60 290.78, 717.20 290.82, 716.02 291.26 C 714.84 291.71, 713.97 292.43, 712.04 293.56 C 710.11 294.69, 708.94 295.53, 706.37 296.92 C 703.80 298.32, 702.21 299.22, 699.19 300.55 C 696.17 301.87, 694.39 302.56, 691.28 303.53 C 688.18 304.50, 686.45 304.89, 683.67 305.41 C 680.89 305.93, 679.50 306.06, 677.37 306.11 C 675.24 306.17, 674.32 306.09, 673.03 305.68 C 671.74 305.26, 671.31 304.95, 670.93 304.03 C 670.55 303.12, 670.58 302.46, 671.14 301.10 C 671.70 299.74, 672.26 298.85, 673.72 297.22 C 675.18 295.59, 676.28 294.61, 678.43 292.93 C 680.58 291.26, 681.96 290.25, 684.47 288.84 C 686.99 287.44, 688.51 286.82, 690.98 285.92 C 693.46 285.02, 694.78 284.72, 696.84 284.35 C 698.90 283.98, 699.86 283.97, 701.27 284.07 C 702.68 284.16, 703.16 284.36, 703.87 284.83 C 704.58 285.29, 704.58 285.75, 704.82 286.39 C 705.06 287.03, 704.94 287.39, 705.06 288.03 C 705.18 288.67, 705.10 289.24, 705.41 289.60 C 705.72 289.96, 706.19 290.13, 706.63 289.83" style="stroke:#000;fill:#000"/></svg>